Coordinates
nRows=8
nColumns=24

# SIMM Motion File Header:
name Coordinates
datacolumns 24
datarows 8
otherdata 1
range 0.24332999999999999000 0.25033000000000000000

Units are S.I. units (second, meters, Newtons, ...)
Angles are in degrees.

endheader
time	pelvis_tx	pelvis_ty	pelvis_tz	pelvis_tilt	pelvis_list	pelvis_rotation	hip_flexion_r	hip_adduction_r	hip_rotation_r	knee_angle_r	ankle_angle_r	subtalar_angle_r	mtp_angle_r	hip_flexion_l	hip_adduction_l	hip_rotation_l	knee_angle_l	ankle_angle_l	subtalar_angle_l	mtp_angle_l	lumbar_extension	lumbar_bending	lumbar_rotation
      0.24332999999999999000	     -1.50765412254728060000	      0.67243772678079483000	      0.24708460395446818000	     10.34683540133628200000	     -0.72918441455008998000	      8.35279581205791110000	     12.10256720725301300000	      3.75249334880558960000	    -10.12343903994523400000	    -25.32202572562505000000	      3.63628710618594030000	      0.00000000000000000000	      0.00000000000000000000	    -11.56168347927345000000	     -2.54655617999019410000	     -5.25888367351522130000	    -48.15026424818189800000	    -42.03053938611890300000	      0.00000000000000000000	      0.00000000000000000000	    -27.64363276369626400000	      8.89345494567618820000	     -1.22646860090798240000
      0.24432999999999999000	     -1.50711497414401130000	      0.67257405939314785000	      0.24719744422949136000	     10.32970451824801600000	     -0.71849264200406837000	      8.33669974040149240000	     12.05441988469245900000	      3.75074768258921450000	    -10.14099453126407900000	    -25.29085254097903100000	      3.67014406409540950000	      0.00000000000000000417	     -0.00000000000000001099	    -11.43195932082944600000	     -2.54291120399805280000	     -5.19639285604554590000	    -48.31788301179841500000	    -41.89294126497930600000	      0.00000000000000000003	     -0.00000000000000000008	    -27.63802369096121900000	      8.86277977967155910000	     -1.18433556455277130000
      0.24532999999999999000	     -1.50657684342773400000	      0.67271029705073260000	      0.24731051135295323000	     10.31265020082469000000	     -0.70775173582705830000	      8.32046160358201090000	     12.00621391111079100000	      3.74896809204129020000	    -10.15867550695158900000	    -25.25961450387336900000	      3.70396989255486280000	     -0.00000000000000000411	     -0.00000000000000000615	    -11.30238847097836300000	     -2.53924459581037440000	     -5.13398319993290380000	    -48.48496323904423400000	    -41.75298182117378300000	     -0.00000000000000000221	     -0.00000000000000000098	    -27.63248436221073600000	      8.83190434528647120000	     -1.14196286815336000000
      0.24632999999999999000	     -1.50603971846620400000	      0.67284644418918949000	      0.24742383202200122000	     10.29568389476222700000	     -0.69695711819231665000	      8.30406923731186450000	     11.95793051666779600000	      3.74715393862652220000	    -10.17648795290148400000	    -25.22829268630276500000	      3.73774395602255050000	     -0.00000000000000000937	      0.00000000000000003670	    -11.17299394349652000000	     -2.53555521804620600000	     -5.07166511738731710000	    -48.65145902238251100000	    -41.61050605235901400000	     -0.00000000000000000631	     -0.00000000000000000305	    -27.62702639546942200000	      8.80081370232628930000	     -1.09933287693010580000
      0.24732999999999999000	     -1.50550359386120620000	      0.67298249901435481000	      0.24753743473034484000	     10.27881234616483900000	     -0.68610464284801720000	      8.28751084959026940000	     11.90956232634701100000	      3.74530279684623620000	    -10.19444094062783700000	    -25.19688080312915100000	      3.77146220885652150000	      0.00000000000000000229	      0.00000000000000006451	    -11.04379055730264800000	     -2.53184191971747820000	     -5.00944750041801080000	    -48.81732434759583600000	    -41.46532524825025200000	     -0.00000000000000001007	     -0.00000000000000000674	    -27.62165692158881900000	      8.76949211445913690000	     -1.05642706490152730000
      0.24833000000000000000	     -1.50496846432243100000	      0.67311845965062023000	      0.24765134719393989000	     10.26204213915388900000	     -0.67519026677414262000	      8.27077489487716560000	     11.86110221115122300000	      3.74341225458071230000	    -10.21254314226226400000	    -25.16537278664122100000	      3.80512084975800980000	      0.00000000000000002618	      0.00000000000000009941	    -10.91479274122273500000	     -2.52810366321321210000	     -4.94733953960796580000	    -48.98251370788093300000	    -41.31725518746900100000	     -0.00000000000000001324	     -0.00000000000000000886	    -27.61638287672268900000	      8.73792430641056410000	     -1.01322754929094310000
      0.24933000000000000000	     -1.50443432462467720000	      0.67325432421821296000	      0.24776559627028294000	     10.24537973447718800000	     -0.66421004393997629000	      8.25385008815318950000	     11.81254318102113000000	      3.74147992082525160000	    -10.23080276692645500000	    -25.13376266563111700000	      3.83871615888933260000	      0.00000000000000003911	      0.00000000000000015824	    -10.78601459244968400000	     -2.52433952079093560000	     -4.88535076174192360000	    -49.14698216282813100000	    -41.16611683802135200000	     -0.00000000000000001456	     -0.00000000000000001231	    -27.61121103753157500000	      8.70609549778787260000	     -0.96971715453836971000
      0.25033000000000000000	     -1.50390116962727260000	      0.67339009084710910000	      0.24788020790330076000	     10.22883146175941400000	     -0.65316013160388209000	      8.23672542216882420000	     11.76387839112250300000	      3.73950342770748010000	    -10.24922753038032400000	    -25.10204457094045700000	      3.87224450087143040000	      0.00000000000000004881	      0.00000000000000025206	    -10.65746985743220200000	     -2.52054868190804540000	     -4.82349105096890170000	    -49.31068537797095500000	    -41.01173670131336000000	     -0.00000000000000001448	     -0.00000000000000001663	    -27.60614801194475700000	      8.67399143536779250000	     -0.92587945735295163000
